<svg width="508" height="82" viewBox="0 0 508 82" fill="none" xmlns="http://www.w3.org/2000/svg">
<path d="M227.574 66.2109C224.938 69.1406 221.08 71.5007 216.002 73.291C210.924 75.0814 205.357 75.9766 199.303 75.9766C189.993 75.9766 182.555 73.1283 176.988 67.4316C171.422 61.735 168.443 53.8086 168.053 43.6523L168.004 37.5C168.004 30.5013 169.241 24.3978 171.715 19.1895C174.189 13.9486 177.721 9.92839 182.311 7.12891C186.933 4.29688 192.271 2.88086 198.326 2.88086C207.18 2.88086 214.049 4.91536 218.932 8.98438C223.847 13.0208 226.712 19.0592 227.525 27.0996H211.021C210.436 23.1283 209.166 20.2962 207.213 18.6035C205.26 16.9108 202.493 16.0645 198.912 16.0645C194.615 16.0645 191.295 17.8874 188.951 21.5332C186.607 25.179 185.419 30.3874 185.387 37.1582V41.4551C185.387 48.5514 186.591 53.89 189 57.4707C191.441 61.0189 195.266 62.793 200.475 62.793C204.934 62.793 208.255 61.8001 210.436 59.8145V48.7793H198.521V37.0117H227.574V66.2109Z" fill="white"/>
<path d="M263.951 49.9023H254.674V75H237.535V3.90625H265.514C273.945 3.90625 280.536 5.77799 285.289 9.52148C290.042 13.265 292.418 18.5547 292.418 25.3906C292.418 30.3385 291.409 34.4401 289.391 37.6953C287.405 40.9505 284.28 43.5872 280.016 45.6055L294.859 74.2676V75H276.5L263.951 49.9023ZM254.674 36.6699H265.514C268.769 36.6699 271.21 35.8236 272.838 34.1309C274.498 32.4056 275.328 30.013 275.328 26.9531C275.328 23.8932 274.498 21.5007 272.838 19.7754C271.178 18.0176 268.736 17.1387 265.514 17.1387H254.674V36.6699Z" fill="white"/>
<path d="M362.975 40.918C362.975 47.8516 361.689 53.9876 359.117 59.3262C356.546 64.6647 352.883 68.7826 348.131 71.6797C343.411 74.5443 338.023 75.9766 331.969 75.9766C325.914 75.9766 320.543 74.5931 315.855 71.8262C311.168 69.0267 307.506 65.0391 304.869 59.8633C302.265 54.6875 300.898 48.7467 300.768 42.041V38.0371C300.768 31.071 302.037 24.9349 304.576 19.6289C307.148 14.2904 310.81 10.1725 315.562 7.27539C320.348 4.37826 325.784 2.92969 331.871 2.92969C337.893 2.92969 343.264 4.36198 347.984 7.22656C352.704 10.0911 356.367 14.1764 358.971 19.4824C361.607 24.7559 362.942 30.8105 362.975 37.6465V40.918ZM345.543 37.9395C345.543 30.8757 344.355 25.5208 341.979 21.875C339.635 18.1966 336.266 16.3574 331.871 16.3574C323.277 16.3574 318.736 22.8027 318.248 35.6934L318.199 40.918C318.199 47.8841 319.355 53.2389 321.666 56.9824C323.977 60.7259 327.411 62.5977 331.969 62.5977C336.298 62.5977 339.635 60.7585 341.979 57.0801C344.322 53.4017 345.51 48.112 345.543 41.2109V37.9395Z" fill="white"/>
<path d="M426.891 48.4863L435.045 3.90625H452.037L436.949 75H419.176L409.654 34.4727L400.328 75H382.604L367.467 3.90625H384.508L392.662 48.4863L402.428 3.90625H416.979L426.891 48.4863Z" fill="white"/>
<path d="M507.311 75H457.701V64.2578L480.553 40.2344C486.184 33.8216 489 28.7272 489 24.9512C489 21.8913 488.333 19.5638 486.998 17.9688C485.663 16.3737 483.727 15.5762 481.188 15.5762C478.681 15.5762 476.646 16.6504 475.084 18.7988C473.521 20.9147 472.74 23.5677 472.74 26.7578H456.236C456.236 22.3958 457.327 18.3757 459.508 14.6973C461.689 10.9863 464.716 8.08919 468.59 6.00586C472.464 3.92253 476.793 2.88086 481.578 2.88086C489.26 2.88086 495.169 4.65495 499.303 8.20312C503.469 11.7513 505.553 16.8457 505.553 23.4863C505.553 26.2858 505.032 29.0202 503.99 31.6895C502.949 34.3262 501.321 37.1094 499.107 40.0391C496.926 42.9362 493.395 46.8262 488.512 51.709L479.332 62.3047H507.311V75Z" fill="white"/>
<mask id="mask0" mask-type="alpha" maskUnits="userSpaceOnUse" x="0" y="0" width="143" height="82">
<path d="M0 81.9184H68.859V30.8678H30.2742V51.0506H49.2698V61.142H21.9636V21.9636H68.859H73.6079H120.503V30.8678H73.6079V81.9184H142.467V61.142H93.1971V51.0506H142.467V0H73.6079H68.859H0V81.9184Z" fill="white"/>
</mask>
<g mask="url(#mask0)">
<rect x="-3.56165" y="-2.37451" width="150.777" height="87.8545" fill="white"/>
<rect x="71.2334" y="-3.56177" width="74.7951" height="87.8545" fill="#2DB382"/>
</g>
</svg>
