<svg width="223" height="122" viewBox="0 0 223 122" fill="none" xmlns="http://www.w3.org/2000/svg">
<path d="M50.9032 39.5329H16.7688V28.653H50.9032V39.5329ZM55.7203 15.1155H12.4501V63.8672H1.65326V9.75864C1.65326 9.01117 1.79168 8.30522 2.06852 7.64081C2.34536 6.97639 2.7191 6.39502 3.18973 5.89671C3.68804 5.3984 4.2694 5.01082 4.93382 4.73398C5.59824 4.45714 6.31803 4.31872 7.09318 4.31872H55.7203V15.1155Z" fill="white"/>
<path d="M74.1994 9.75864H63.4026V0H74.1994V9.75864ZM74.1994 63.8672H63.4026V18.9774H74.1994V63.8672Z" fill="white"/>
<path d="M134.329 63.8672H123.532V38.9515C123.532 37.5396 123.283 36.28 122.785 35.1726C122.314 34.0376 121.664 33.0686 120.833 32.2658C120.003 31.463 119.02 30.8539 117.885 30.4386C116.778 29.9957 115.573 29.7742 114.272 29.7742H95.3777V63.8672H84.5809V24.3343C84.5809 23.5868 84.7193 22.8947 84.9962 22.258C85.273 21.5936 85.6606 21.0261 86.1589 20.5554C86.6572 20.0571 87.2386 19.6695 87.903 19.3927C88.5674 19.1159 89.2734 18.9774 90.0209 18.9774H114.355C115.712 18.9774 117.137 19.1297 118.632 19.4342C120.155 19.7388 121.65 20.2371 123.117 20.9292C124.612 21.5936 126.024 22.4518 127.353 23.5038C128.709 24.5281 129.9 25.7877 130.924 27.2827C131.976 28.7499 132.807 30.4525 133.416 32.3904C134.025 34.3283 134.329 36.5153 134.329 38.9515V63.8672Z" fill="white"/>
<path d="M152.808 58.4273C152.808 59.1747 152.656 59.8807 152.352 60.5451C152.075 61.1818 151.687 61.7493 151.189 62.2477C150.718 62.7183 150.151 63.092 149.486 63.3689C148.85 63.6457 148.171 63.7841 147.451 63.7841C146.704 63.7841 145.998 63.6457 145.334 63.3689C144.697 63.092 144.129 62.7183 143.631 62.2477C143.16 61.7493 142.787 61.1818 142.51 60.5451C142.233 59.8807 142.095 59.1747 142.095 58.4273C142.095 57.7075 142.233 57.0292 142.51 56.3925C142.787 55.7281 143.16 55.1605 143.631 54.6899C144.129 54.1916 144.697 53.804 145.334 53.5272C145.998 53.2226 146.704 53.0704 147.451 53.0704C148.171 53.0704 148.85 53.2226 149.486 53.5272C150.151 53.804 150.718 54.1916 151.189 54.6899C151.687 55.1605 152.075 55.7281 152.352 56.3925C152.656 57.0292 152.808 57.7075 152.808 58.4273Z" fill="white"/>
<path d="M189.642 25.5801L207.83 4.31872H222.572L196.951 34.176L222.406 63.8672H207.747L189.642 42.7719L171.62 63.8672H156.919L182.333 34.176L156.836 4.31872H171.454L189.642 25.5801Z" fill="white"/>
<path d="M15.3906 113.403H4.7236V110.003H15.3906V113.403ZM16.8959 105.772H3.374V121.007H0V104.098C0 103.865 0.0432564 103.644 0.129769 103.436C0.216282 103.229 0.333074 103.047 0.480146 102.891C0.635869 102.736 0.817546 102.615 1.02518 102.528C1.23281 102.441 1.45774 102.398 1.69998 102.398H16.8959V105.772Z" fill="white"/>
<path d="M30.3296 121.007H26.9556V102.398H30.3296V121.007Z" fill="white"/>
<path d="M60.1791 119.567C60.1791 119.809 60.1316 120.034 60.0364 120.241C59.9499 120.449 59.8288 120.631 59.673 120.787C59.526 120.934 59.3486 121.05 59.141 121.137C58.9334 121.223 58.7127 121.267 58.4792 121.267C58.2715 121.267 58.0596 121.228 57.8433 121.15C57.6357 121.072 57.4497 120.947 57.2853 120.774L44.9572 107.9V121.007H41.5832V103.839C41.5832 103.493 41.6784 103.181 41.8687 102.904C42.0677 102.619 42.3186 102.407 42.6214 102.268C42.9415 102.139 43.2702 102.108 43.6076 102.178C43.945 102.238 44.2348 102.394 44.4771 102.645L56.8051 115.505V102.398H60.1791V119.567Z" fill="white"/>
<path d="M89.6783 121.007H86.3043V116.439H74.4434V121.007H71.0694V111.703C71.0694 110.344 71.3029 109.094 71.7701 107.952C72.2373 106.81 72.8861 105.828 73.7167 105.007C74.5472 104.185 75.5291 103.545 76.6624 103.086C77.7957 102.627 79.0329 102.398 80.3738 102.398H87.9783C88.2119 102.398 88.4325 102.441 88.6401 102.528C88.8477 102.615 89.0294 102.736 89.1851 102.891C89.3409 103.047 89.462 103.229 89.5485 103.436C89.635 103.644 89.6783 103.865 89.6783 104.098V121.007ZM74.4434 113.065H86.3043V105.772H80.3738C80.27 105.772 80.0494 105.79 79.712 105.824C79.3832 105.85 78.9983 105.924 78.557 106.045C78.1245 106.166 77.666 106.352 77.1815 106.603C76.697 106.854 76.2515 107.2 75.8449 107.641C75.4383 108.082 75.1009 108.636 74.8327 109.302C74.5731 109.959 74.4434 110.76 74.4434 111.703V113.065Z" fill="white"/>
<path d="M119.515 119.567C119.515 119.809 119.467 120.034 119.372 120.241C119.286 120.449 119.164 120.631 119.009 120.787C118.862 120.934 118.684 121.05 118.477 121.137C118.269 121.223 118.048 121.267 117.815 121.267C117.607 121.267 117.395 121.228 117.179 121.15C116.971 121.072 116.785 120.947 116.621 120.774L104.293 107.9V121.007H100.919V103.839C100.919 103.493 101.014 103.181 101.204 102.904C101.403 102.619 101.654 102.407 101.957 102.268C102.277 102.139 102.606 102.108 102.943 102.178C103.281 102.238 103.57 102.394 103.813 102.645L116.141 115.505V102.398H119.515V119.567Z" fill="white"/>
<path d="M147.418 121.007H135.245C134.934 121.007 134.597 120.973 134.233 120.903C133.878 120.825 133.524 120.709 133.169 120.553C132.823 120.397 132.49 120.198 132.17 119.956C131.85 119.705 131.564 119.407 131.313 119.061C131.071 118.706 130.876 118.299 130.729 117.841C130.582 117.374 130.509 116.85 130.509 116.271V107.135C130.509 106.823 130.543 106.49 130.613 106.136C130.69 105.772 130.807 105.418 130.963 105.071C131.119 104.717 131.322 104.379 131.573 104.059C131.824 103.739 132.122 103.458 132.468 103.216C132.823 102.965 133.23 102.766 133.688 102.619C134.147 102.472 134.666 102.398 135.245 102.398H147.418V105.772H135.245C134.804 105.772 134.467 105.889 134.233 106.123C134 106.356 133.883 106.702 133.883 107.161V116.271C133.883 116.703 134 117.041 134.233 117.283C134.475 117.516 134.813 117.633 135.245 117.633H147.418V121.007Z" fill="white"/>
<path d="M173.218 113.403H162.564V110.003H173.218V113.403ZM174.737 121.007H162.564C162.097 121.007 161.587 120.925 161.033 120.761C160.479 120.596 159.965 120.328 159.489 119.956C159.022 119.575 158.628 119.087 158.308 118.49C157.997 117.884 157.841 117.144 157.841 116.271V104.098C157.841 103.865 157.884 103.644 157.971 103.436C158.057 103.229 158.174 103.047 158.321 102.891C158.477 102.736 158.658 102.615 158.866 102.528C159.074 102.441 159.299 102.398 159.541 102.398H174.737V105.772H161.215V116.271C161.215 116.712 161.332 117.049 161.565 117.283C161.799 117.516 162.14 117.633 162.59 117.633H174.737V121.007Z" fill="white"/>
<path d="M209.637 109.042L215.321 102.398H219.928L211.921 111.729L219.876 121.007H215.295L209.637 114.415L204.005 121.007H199.411L207.353 111.729L199.385 102.398H203.953L209.637 109.042Z" fill="white"/>
<line x1="0.698242" y1="84.1285" x2="222.614" y2="84.1285" stroke="white" stroke-width="2"/>
</svg>
