<svg width="44" height="45" viewBox="0 0 44 45" fill="none" xmlns="http://www.w3.org/2000/svg">
<path d="M25.7323 16.8956L24.8464 14.3882L17.3321 4.34536L18.682 4.01052L31.6382 15.2108L39.2633 13.0303C40.1597 12.7983 41.1775 12.7482 41.9526 12.7535C39.5559 7.58574 35.1713 3.34346 29.3813 1.28164C17.9359 -2.79717 5.35139 3.18263 1.28048 14.6334C0.0201906 18.1743 -0.280381 21.8286 0.249575 25.3037L18.5159 18.9574L25.7323 16.8956Z" fill="#072F54"/>
<path d="M42.7554 14.7327C42.0857 15.1677 41.1022 15.7372 40.1267 16.051L32.4858 18.2314L27.3866 34.5994L26.0631 35.0292L27.1388 22.5291L26.5377 19.9321L19.3767 21.9754L0.451172 26.4313C1.94876 33.7162 7.10594 40.0598 14.6229 42.7386C26.071 46.8174 38.6502 40.835 42.7211 29.3922C44.477 24.4591 44.3637 19.3125 42.7554 14.7327Z" fill="#072F54"/>
<path d="M26.5373 19.9338L27.1411 22.5282L26.0628 35.0283L27.3863 34.5985L32.4855 18.2332L40.1264 16.0527C41.1019 15.739 42.0854 15.1642 42.755 14.7344C42.5204 14.0621 42.2515 13.4003 41.9535 12.7543C41.1784 12.7491 40.1606 12.8018 39.2642 13.0285L31.6392 15.2143L18.6803 4.00874L17.333 4.34623L24.8447 14.389L25.7332 16.8938L18.5142 18.9609L0.250488 25.3019C0.308493 25.6816 0.374409 26.0586 0.45087 26.433L19.379 21.9771L26.5373 19.9338Z" fill="#FBC108"/>
</svg>
