<svg width="162" height="30" viewBox="0 0 162 30" fill="none" xmlns="http://www.w3.org/2000/svg">
<path d="M8.21594 26.32C5.99728 26.32 4.16261 25.776 2.71194 24.688C1.28261 23.5787 0.525275 21.9467 0.439941 19.792C0.439941 19.5787 0.493275 19.408 0.599941 19.28C0.727941 19.152 0.898608 19.088 1.11194 19.088H1.75194C1.96527 19.088 2.12527 19.152 2.23194 19.28C2.35994 19.408 2.43461 19.568 2.45594 19.76C2.58394 21.3387 3.17061 22.512 4.21594 23.28C5.28261 24.0267 6.61594 24.4 8.21594 24.4C10.0506 24.4 11.4586 23.8027 12.4399 22.608C13.4426 21.392 13.9439 19.792 13.9439 17.808V5.52H2.13594C1.92261 5.52 1.75194 5.456 1.62394 5.328C1.49594 5.2 1.43194 5.02933 1.43194 4.816V4.304C1.43194 4.09067 1.49594 3.92 1.62394 3.792C1.75194 3.664 1.92261 3.6 2.13594 3.6H15.2239C15.4586 3.6 15.6399 3.664 15.7679 3.792C15.8959 3.92 15.9599 4.10133 15.9599 4.336V17.84C15.9599 20.4 15.2773 22.4587 13.9119 24.016C12.5679 25.552 10.6693 26.32 8.21594 26.32Z" fill="black"/>
<path d="M19.8142 26C19.6435 26 19.4942 25.936 19.3662 25.808C19.2382 25.68 19.1742 25.5307 19.1742 25.36L19.2382 25.008L27.3342 4.24C27.5049 3.81333 27.8142 3.6 28.2622 3.6H29.3502C29.7982 3.6 30.1075 3.81333 30.2782 4.24L38.3742 25.008L38.4382 25.36C38.4382 25.5307 38.3742 25.68 38.2462 25.808C38.1182 25.936 37.9689 26 37.7982 26H37.1582C36.9662 26 36.8062 25.9467 36.6782 25.84C36.5715 25.7333 36.4969 25.6267 36.4542 25.52L34.4702 20.4H23.1422L21.1582 25.52C21.1155 25.6267 21.0302 25.7333 20.9022 25.84C20.7955 25.9467 20.6462 26 20.4542 26H19.8142ZM33.7022 18.48L28.8062 5.872L23.9102 18.48H33.7022Z" fill="black"/>
<path d="M48.6342 26.32C46.9702 26.32 45.5195 26.0533 44.2822 25.52C43.0662 24.9653 42.1275 24.2507 41.4662 23.376C40.8262 22.5013 40.4849 21.5627 40.4422 20.56C40.4422 20.3893 40.5062 20.24 40.6342 20.112C40.7622 19.984 40.9222 19.92 41.1142 19.92H41.7542C42.1382 19.92 42.3729 20.1333 42.4582 20.56C42.6075 21.584 43.1942 22.48 44.2182 23.248C45.2422 24.016 46.7142 24.4 48.6342 24.4C50.6609 24.4 52.1649 24.0373 53.1462 23.312C54.1489 22.5653 54.6502 21.5307 54.6502 20.208C54.6502 19.3973 54.4049 18.736 53.9142 18.224C53.4449 17.6907 52.7515 17.232 51.8342 16.848C50.9169 16.4427 49.5302 15.9413 47.6742 15.344C46.0315 14.8107 44.7409 14.288 43.8022 13.776C42.8849 13.264 42.2022 12.6347 41.7542 11.888C41.3062 11.1413 41.0822 10.192 41.0822 9.04C41.0822 7.952 41.3702 6.97067 41.9462 6.096C42.5435 5.22133 43.3969 4.53867 44.5062 4.048C45.6155 3.536 46.9382 3.28 48.4742 3.28C50.0529 3.28 51.4075 3.568 52.5382 4.144C53.6689 4.69867 54.5222 5.41333 55.0982 6.288C55.6742 7.14133 55.9835 8.00533 56.0262 8.88C56.0262 9.05067 55.9622 9.2 55.8342 9.328C55.7275 9.456 55.5675 9.52 55.3542 9.52H54.7142C54.5649 9.52 54.4155 9.47733 54.2662 9.392C54.1169 9.28533 54.0315 9.11467 54.0102 8.88C53.8822 7.81333 53.3062 6.93867 52.2822 6.256C51.2795 5.552 50.0102 5.2 48.4742 5.2C46.8315 5.2 45.5195 5.52 44.5382 6.16C43.5782 6.8 43.0982 7.76 43.0982 9.04C43.0982 9.872 43.3115 10.5653 43.7382 11.12C44.1862 11.6533 44.8475 12.1227 45.7222 12.528C46.5969 12.912 47.8875 13.3813 49.5942 13.936C51.3435 14.4907 52.7089 15.024 53.6902 15.536C54.6715 16.048 55.4075 16.6667 55.8982 17.392C56.4102 18.1173 56.6662 19.056 56.6662 20.208C56.6662 22.128 55.9515 23.632 54.5222 24.72C53.0929 25.7867 51.1302 26.32 48.6342 26.32Z" fill="black"/>
<path d="M61.9932 26C61.7799 26 61.6092 25.936 61.4812 25.808C61.3532 25.68 61.2892 25.5093 61.2892 25.296V4.336C61.2892 4.12267 61.3532 3.952 61.4812 3.824C61.6092 3.67467 61.7799 3.6 61.9932 3.6H74.4732C74.7079 3.6 74.8892 3.664 75.0172 3.792C75.1452 3.92 75.2092 4.10133 75.2092 4.336V4.816C75.2092 5.02933 75.1345 5.2 74.9852 5.328C74.8572 5.456 74.6865 5.52 74.4732 5.52H63.3052V13.68H73.7692C74.0039 13.68 74.1852 13.744 74.3132 13.872C74.4412 14 74.5052 14.1813 74.5052 14.416V14.896C74.5052 15.1093 74.4305 15.28 74.2812 15.408C74.1532 15.536 73.9825 15.6 73.7692 15.6H63.3052V24.08H74.7292C74.9639 24.08 75.1452 24.144 75.2732 24.272C75.4012 24.4 75.4652 24.5813 75.4652 24.816V25.296C75.4652 25.5093 75.3905 25.68 75.2412 25.808C75.1132 25.936 74.9425 26 74.7292 26H61.9932Z" fill="black"/>
<path d="M80.4827 26C80.2694 26 80.088 25.9253 79.9387 25.776C79.7894 25.6267 79.7147 25.4453 79.7147 25.232V4.4C79.7147 4.16533 79.7787 3.97333 79.9067 3.824C80.056 3.67467 80.248 3.6 80.4827 3.6H94.3707C94.6054 3.6 94.7974 3.67467 94.9467 3.824C95.096 3.97333 95.1707 4.16533 95.1707 4.4V6.64C95.1707 6.87467 95.096 7.06667 94.9467 7.216C94.7974 7.344 94.6054 7.408 94.3707 7.408H84.0987V13.488H93.7307C93.9654 13.488 94.1574 13.5627 94.3067 13.712C94.456 13.8613 94.5307 14.0533 94.5307 14.288V16.528C94.5307 16.7627 94.456 16.9547 94.3067 17.104C94.1574 17.232 93.9654 17.296 93.7307 17.296H84.0987V25.232C84.0987 25.4667 84.024 25.6587 83.8747 25.808C83.7254 25.936 83.5334 26 83.2987 26H80.4827Z" fill="black"/>
<path d="M99.7014 26C99.4881 26 99.3068 25.9253 99.1574 25.776C99.0081 25.6267 98.9334 25.4453 98.9334 25.232V4.368C98.9334 4.13333 99.0081 3.952 99.1574 3.824C99.3068 3.67467 99.4881 3.6 99.7014 3.6H102.677C102.912 3.6 103.093 3.67467 103.221 3.824C103.371 3.952 103.445 4.13333 103.445 4.368V22.192H113.589C113.824 22.192 114.016 22.2667 114.165 22.416C114.315 22.5653 114.389 22.7573 114.389 22.992V25.232C114.389 25.4667 114.315 25.6587 114.165 25.808C114.016 25.936 113.824 26 113.589 26H99.7014Z" fill="black"/>
<path d="M125.823 26.32C122.921 26.32 120.66 25.584 119.039 24.112C117.417 22.64 116.564 20.4533 116.479 17.552C116.457 16.9333 116.447 16.0267 116.447 14.832C116.447 13.616 116.457 12.6987 116.479 12.08C116.564 9.24267 117.439 7.06667 119.103 5.552C120.767 4.03733 123.007 3.28 125.823 3.28C128.639 3.28 130.879 4.03733 132.543 5.552C134.228 7.06667 135.113 9.24267 135.199 12.08C135.241 13.3173 135.263 14.2347 135.263 14.832C135.263 15.408 135.241 16.3147 135.199 17.552C135.092 20.4533 134.228 22.64 132.607 24.112C130.985 25.584 128.724 26.32 125.823 26.32ZM125.823 22.64C127.252 22.64 128.393 22.2133 129.247 21.36C130.1 20.4853 130.559 19.1627 130.623 17.392C130.665 16.112 130.687 15.248 130.687 14.8C130.687 14.3093 130.665 13.4453 130.623 12.208C130.559 10.4373 130.1 9.12533 129.247 8.272C128.393 7.39733 127.252 6.96 125.823 6.96C124.415 6.96 123.284 7.39733 122.431 8.272C121.577 9.12533 121.119 10.4373 121.055 12.208C121.033 12.8267 121.023 13.6907 121.023 14.8C121.023 15.888 121.033 16.752 121.055 17.392C121.119 19.1627 121.567 20.4853 122.399 21.36C123.252 22.2133 124.393 22.64 125.823 22.64Z" fill="black"/>
<path d="M142.895 26C142.575 26 142.319 25.9147 142.127 25.744C141.935 25.5733 141.817 25.3387 141.775 25.04L137.967 4.528L137.935 4.272C137.935 4.08 137.999 3.92 138.127 3.792C138.276 3.664 138.436 3.6 138.607 3.6H141.423C141.956 3.6 142.255 3.81333 142.319 4.24L144.975 18.736L147.855 9.36C148.068 8.82667 148.42 8.56 148.911 8.56H150.639C151.172 8.56 151.513 8.82667 151.663 9.36L154.575 18.704L157.231 4.24C157.273 4.00533 157.359 3.84533 157.487 3.76C157.636 3.65333 157.849 3.6 158.127 3.6H160.943C161.113 3.6 161.263 3.664 161.391 3.792C161.519 3.92 161.583 4.08 161.583 4.272C161.583 4.37867 161.572 4.464 161.551 4.528L157.743 25.04C157.636 25.68 157.263 26 156.623 26H154.479C154.18 26 153.935 25.9253 153.743 25.776C153.551 25.6267 153.423 25.4347 153.359 25.2L149.775 14.512L146.191 25.2C145.977 25.7333 145.593 26 145.039 26H142.895Z" fill="black"/>
<rect x="19" width="21" height="30" fill="white"/>
<path d="M18.1993 25.8029C18.3322 25.9343 18.4873 26 18.6645 26H19.3289C19.5282 26 19.6833 25.9452 19.794 25.8357C19.9269 25.7262 20.0155 25.6167 20.0598 25.5071L22.9169 18.2786L28 5.33286L33.8804 20.25L35.9402 25.5071C35.9845 25.6167 36.062 25.7262 36.1728 25.8357C36.3056 25.9452 36.4718 26 36.6711 26H37.3355C37.5127 26 37.6678 25.9343 37.8007 25.8029C37.9336 25.6714 38 25.5181 38 25.3429L37.9336 24.9814L29.5282 3.65714C29.3511 3.21905 29.0299 3 28.5648 3H27.4352C26.9701 3 26.6489 3.21905 26.4718 3.65714L18.0664 24.9814L18 25.3429C18 25.5181 18.0664 25.6714 18.1993 25.8029Z" fill="black"/>
</svg>
