<svg width="66" height="24" viewBox="0 0 66 24" fill="none" xmlns="http://www.w3.org/2000/svg">
<path d="M63.7238 23.96C64.9702 23.96 65.8294 23.1562 65.8294 21.9575C65.8294 20.7602 64.9687 19.9718 63.7238 19.981C62.4866 19.981 61.6183 20.7695 61.6183 21.959C61.6168 23.1562 62.4851 23.96 63.7238 23.96Z" fill="#7AC231"/>
<path d="M49.1404 8.61268H50.8771V7.4385C50.8771 4.83501 52.4355 3.42723 54.6855 3.42723C55.2803 3.42723 55.7459 3.49178 56.2208 3.57169V6.07989C55.875 6.02303 55.5861 6.00766 55.2403 6.00766C54.3643 6.00766 53.8817 6.5302 53.8817 7.60756V8.61268H56.2208V11.3053H53.8817L53.8832 17.6219L50.8771 17.6234L50.8755 11.3068H49.1389L49.1404 8.61268ZM46.6722 7.03737C45.6517 7.03737 44.831 6.27508 44.831 5.25305C44.831 4.1926 45.6501 3.42876 46.6706 3.42876C47.6512 3.42876 48.4949 4.19106 48.4949 5.25305C48.4888 6.27354 47.6527 7.03737 46.6722 7.03737ZM48.0169 17.6219L45.0108 17.6234L45.0077 8.61422L48.0139 8.61268L48.0169 17.6219ZM58.4662 21.0276C60.3381 21.0276 61.6245 19.8212 61.6245 18.0215C61.6168 16.9687 61.1742 16.1327 60.4257 15.6101C61.1973 14.1316 61.623 12.395 61.6214 10.4585C61.6199 4.16493 57.103 0.0107316 50.5282 0.0122685C43.9934 0.0138054 39.438 4.17108 39.4396 10.4631C39.4411 16.7966 43.9995 21.0307 50.5343 21.0292C52.5431 21.0292 57.3735 21.0276 58.4662 21.0276Z" fill="#7AC231"/>
<path d="M6.68238 17.6419L8.59273 11.9831L10.5323 17.6327L13.8996 17.6403L17.1839 7.08655H13.6399L11.9693 13.0666L9.9252 7.08809H7.28945L5.22541 13.0527L3.56865 7.08962L0 7.09116L3.30584 17.6419H6.68238Z" fill="#7AC231"/>
<path d="M22.9549 9.68852C24.4826 9.68852 25.5676 10.7321 25.5676 12.2997C25.5676 13.915 24.4918 14.9769 22.9642 14.9769C21.4365 14.9769 20.3514 13.9088 20.3514 12.3012C20.3514 10.7336 21.4273 9.68852 22.9549 9.68852ZM22.9657 17.9985C26.5097 17.9969 28.9442 15.7146 28.9442 12.2982C28.9426 8.90625 26.499 6.66547 22.9626 6.66547C19.4416 6.667 16.9841 8.90932 16.9841 12.3012C16.9857 15.7177 19.437 18 22.9657 17.9985Z" fill="#7AC231"/>
<path d="M31.5001 13.48C31.5016 16.374 32.9555 17.9646 35.5928 17.9631C36.4765 17.9631 37.1035 17.9139 37.7874 17.7864L37.7859 14.7249C37.2757 14.7802 36.8914 14.8048 36.5318 14.8048C35.4468 14.8048 35.0287 14.1778 35.0287 13.1342V10.2403H37.7936L37.7921 7.08964H35.0272L35.0257 3.4964L31.497 3.49794L31.4985 7.09117H29.4729L29.4744 10.2418H31.5001V13.48Z" fill="#7AC231"/>
</svg>
