<svg width="286" height="104" viewBox="0 0 286 104" fill="none" xmlns="http://www.w3.org/2000/svg">
<path d="M276.136 103.827C281.537 103.827 285.26 100.344 285.26 95.1492C285.26 89.9609 281.53 86.5445 276.136 86.5843C270.774 86.5843 267.012 90.0012 267.012 95.1557C267.005 100.344 270.768 103.827 276.136 103.827Z" fill="white"/>
<path d="M212.941 37.3212H220.467V32.2331C220.467 20.9513 227.22 14.8509 236.97 14.8509C239.547 14.8509 241.565 15.1306 243.623 15.4769V26.3458C242.124 26.0994 240.872 26.0328 239.374 26.0328C235.578 26.0328 233.487 28.2971 233.487 32.9657V37.3212H243.623V48.9892H233.487L233.493 76.3611L220.467 76.3676L220.46 48.9957H212.935L212.941 37.3212ZM202.246 30.4948C197.823 30.4948 194.267 27.1916 194.267 22.7628C194.267 18.1675 197.816 14.8575 202.239 14.8575C206.488 14.8575 210.144 18.1608 210.144 22.7628C210.117 27.1849 206.494 30.4948 202.246 30.4948ZM208.073 76.3611L195.046 76.3676L195.033 37.3279L208.06 37.3212L208.073 76.3611ZM253.353 91.1192C261.464 91.1192 267.039 85.8914 267.039 78.0927C267.005 73.5306 265.088 69.9079 261.844 67.6433C265.188 61.2365 267.032 53.7112 267.025 45.3197C267.019 18.0476 247.446 0.0460763 218.955 0.0527362C190.637 0.0593961 170.897 18.0743 170.904 45.3397C170.911 72.7848 190.664 91.1326 218.981 91.1261C227.686 91.1261 248.618 91.1192 253.353 91.1192Z" fill="white"/>
<path d="M28.957 76.4479L37.2352 51.9264L45.64 76.408L60.2316 76.4409L74.4636 30.708H59.1062L51.867 56.6216L43.0092 30.7147H31.5876L22.6434 56.5613L15.4642 30.7213L0 30.728L14.3253 76.4479H28.957Z" fill="white"/>
<path d="M99.4721 41.9837C106.092 41.9837 110.794 46.5058 110.794 53.2988C110.794 60.2984 106.132 64.9 99.5124 64.9C92.8924 64.9 88.1903 60.2715 88.1903 53.3053C88.1903 46.5124 92.8525 41.9837 99.4721 41.9837ZM99.5189 77.9936C114.876 77.9867 125.426 68.0967 125.426 53.2923C125.419 38.5938 114.83 28.8838 99.5055 28.8838C84.2478 28.8904 73.5986 38.6071 73.5986 53.3053C73.6056 68.1101 84.2279 78.0001 99.5189 77.9936Z" fill="white"/>
<path d="M136.499 58.4141C136.506 70.9548 142.806 77.8474 154.234 77.8409C158.064 77.8409 160.781 77.6277 163.744 77.0752L163.738 63.8087C161.527 64.0483 159.862 64.1549 158.303 64.1549C153.602 64.1549 151.79 61.4379 151.79 56.9157V44.3754H163.771L163.765 30.7226H151.783L151.777 15.1519L136.486 15.1585L136.492 30.7292H127.715L127.721 44.3819H136.499V58.4141Z" fill="white"/>
</svg>
