<svg width="583" height="89" viewBox="0 0 583 89" fill="none" xmlns="http://www.w3.org/2000/svg">
<path d="M159.808 10H178.167V79H159.808V51.7009H146.359V79H128V10H146.359V38.2664H159.808V10Z" fill="white"/>
<path d="M186.685 10H205.364V79H186.685V10Z" fill="white"/>
<path d="M213.89 10H245.591C256.052 10 261.282 14.4424 261.282 23.3271V43.1028C261.282 51.9875 256.052 56.4299 245.591 56.4299H232.569V79H213.89V10ZM242.603 40.6308V25.7991C242.603 24.2227 241.713 23.4346 239.934 23.4346H232.569V42.9953H239.934C241.713 42.9953 242.603 42.2072 242.603 40.6308Z" fill="white"/>
<path d="M313.573 35.7944H294.894V24.7243C294.894 23.148 294.005 22.3598 292.226 22.3598H288.49C286.711 22.3598 285.821 23.148 285.821 24.7243V64.2757C285.821 65.852 286.711 66.6402 288.49 66.6402H292.226C294.005 66.6402 294.894 65.852 294.894 64.2757V53.6355H313.573V65.6729C313.573 74.5576 308.343 79 297.883 79H282.833C272.372 79 267.142 74.5576 267.142 65.6729V23.3271C267.142 14.4424 272.372 10 282.833 10H297.883C308.343 10 313.573 14.4424 313.573 23.3271V35.7944Z" fill="white"/>
<path d="M352.331 10H370.69V79H352.331V51.7009H338.882V79H320.523V10H338.882V38.2664H352.331V10Z" fill="white"/>
<path d="M414.111 79L411.977 68.6822H395.539L393.298 79H374.939L392.55 10H415.285L432.897 79H414.111ZM398.421 55.3551H409.095L403.865 30.528L398.421 55.3551Z" fill="white"/>
<path d="M455.842 54.4953V79H437.163V10H468.864C479.325 10 484.555 14.4424 484.555 23.3271V41.1682C484.555 47.9751 481.495 52.1667 475.375 53.743L487.97 79H467.904L457.016 54.4953H455.842ZM463.207 23.4346H455.842V41.7056H463.207C464.986 41.7056 465.876 40.9174 465.876 39.3411V25.7991C465.876 24.2227 464.986 23.4346 463.207 23.4346Z" fill="white"/>
<path d="M533.299 10V23.4346H520.063V79H501.384V23.4346H488.256V10H533.299Z" fill="white"/>
<path d="M564.321 63.2009V53.4206C564.321 51.8442 563.431 51.0561 561.652 51.0561H551.406C546.14 51.0561 542.404 49.9097 540.198 47.6168C538.064 45.2523 536.996 41.8847 536.996 37.514V23.3271C536.996 14.4424 542.191 10 552.58 10H567.203C577.592 10 582.787 14.4424 582.787 23.3271V31.6028H564.107V25.7991C564.107 24.2227 563.218 23.4346 561.439 23.4346H558.344C556.565 23.4346 555.675 24.2227 555.675 25.7991V36.0093C555.675 37.5857 556.565 38.3738 558.344 38.3738H568.377C573.643 38.3738 577.378 39.4844 579.584 41.7056C581.861 43.9268 583 47.1869 583 51.486V65.6729C583 74.5576 577.805 79 567.416 79H552.9C542.44 79 537.21 74.5576 537.21 65.6729V57.3972H555.889V63.2009C555.889 64.7773 556.778 65.5654 558.557 65.5654H561.652C563.431 65.5654 564.321 64.7773 564.321 63.2009Z" fill="white"/>
<rect width="28.3182" height="28.3182" fill="#0066FF"/>
<rect y="30.3409" width="28.3182" height="28.3182" fill="#0066FF"/>
<rect y="60.6818" width="28.3182" height="28.3182" fill="#0066FF"/>
<rect x="30.3409" y="30.3409" width="28.3182" height="28.3182" fill="#0066FF"/>
<rect x="60.6818" width="28.3182" height="28.3182" fill="#0066FF"/>
<rect x="60.6818" y="30.3409" width="28.3182" height="28.3182" fill="#0066FF"/>
<rect x="60.6818" y="60.6818" width="28.3182" height="28.3182" fill="#0066FF"/>
</svg>
