<svg width="145" height="33" viewBox="0 0 145 33" fill="none" xmlns="http://www.w3.org/2000/svg">
<path d="M32.2911 16.5C32.2923 17.955 32.0926 19.4032 31.6974 20.8035L31.2443 20.8493C31.2076 20.8525 31.1702 20.8557 31.1341 20.857L30.7513 20.8744C30.2536 20.8952 29.7718 21.0557 29.361 21.3375C28.9502 21.6192 28.627 22.0109 28.4284 22.4677L28.3304 22.6907C28.167 23.063 27.8987 23.3797 27.5583 23.6021C27.2179 23.8245 26.8202 23.9429 26.4136 23.943H24.7848C24.5971 23.9436 24.4158 23.8741 24.2766 23.7481C24.1374 23.6221 24.0502 23.4487 24.032 23.2618L23.9669 22.6108C23.9284 22.2133 23.8001 21.8297 23.5918 21.4889C23.3835 21.1482 23.1005 20.8592 22.7642 20.6437C22.6329 20.5593 22.525 20.4432 22.4503 20.3061C22.3756 20.1691 22.3366 20.0154 22.3369 19.8593V19.207C22.337 19.026 22.3755 18.8471 22.45 18.6821C22.5244 18.5171 22.6331 18.3697 22.7688 18.2499L25.5505 15.7929C25.9424 15.4455 26.2266 14.9932 26.3694 14.4893C26.5123 13.9855 26.508 13.4513 26.3569 12.9499C26.1998 12.4325 25.8961 11.9718 25.4824 11.6237C25.0687 11.2755 24.5628 11.0549 24.0262 10.9886L23.7452 10.9538C23.4101 10.9128 23.1019 10.7496 22.8796 10.4955C22.7737 10.3751 22.7077 10.2247 22.6907 10.0652C22.6738 9.90571 22.7066 9.74486 22.7849 9.6048L23.3675 8.60836C24.0878 7.37877 24.937 6.22933 25.9005 5.17945L26.5289 4.30289C28.3324 5.7826 29.7848 7.64432 30.7813 9.75362C31.7778 11.8629 32.2934 14.1672 32.2911 16.5Z" fill="#D8FF33"/>
<path d="M31.2443 20.8493L31.6974 20.8035C29.8238 27.4332 23.7291 32.291 16.5 32.291C7.77885 32.291 0.708984 25.2211 0.708984 16.5C0.708984 16.0031 0.731543 15.5119 0.77666 15.0266L0.967441 15.0446L1.18271 15.0021C1.69289 14.9023 2.22149 14.9642 2.69483 15.1791C3.16818 15.3939 3.56269 15.7512 3.82336 16.2009C3.94638 16.4117 4.09921 16.6036 4.27711 16.7707L5.39988 17.8277C5.60059 18.0163 5.84446 18.1529 6.11016 18.2254L6.241 18.2615C6.62105 18.3659 6.96761 18.5669 7.24693 18.845C7.52625 19.1231 7.72882 19.4687 7.83492 19.8483L8.43627 22.0198C8.50896 22.2805 8.63057 22.525 8.79463 22.7403L10.618 25.1309C10.8456 25.4295 10.9969 25.779 11.0589 26.1493L11.5545 29.1231C11.5703 29.2298 11.6249 29.3269 11.7079 29.3958C11.7672 29.4434 11.8383 29.4742 11.9136 29.4847C11.989 29.4953 12.0658 29.4853 12.1359 29.4557C12.2766 29.3969 12.3986 29.3008 12.4888 29.1778C12.579 29.0548 12.6339 28.9096 12.6476 28.7577C12.7077 28.1498 12.9509 27.5744 13.345 27.1077L13.8735 26.4728C13.967 26.3604 14.0371 26.2305 14.0798 26.0906L14.6231 24.3298C14.7833 23.8094 15.1014 23.3517 15.5332 23.0201L17.1484 21.78C17.2658 21.6926 17.3455 21.5637 17.3714 21.4197C17.3845 21.3408 17.3802 21.2599 17.3587 21.1829C17.3372 21.1058 17.2991 21.0344 17.247 20.9737L16.1719 19.7085C16.1075 19.6331 16.0463 19.5544 15.9889 19.4739L15.1665 18.3285C14.7121 17.6943 13.985 17.2741 13.2045 17.2947C13.1261 17.2966 13.0488 17.2762 12.9815 17.2361L11.3019 16.228C11.0602 16.0838 10.7855 16.0045 10.5043 15.9976C10.223 15.9907 9.9447 16.0565 9.69633 16.1887L8.81139 16.6631C8.42397 16.8706 7.97235 16.9238 7.5473 16.812C7.12225 16.7002 6.75526 16.4317 6.52008 16.0604L5.66027 14.703C5.46564 14.3955 5.36495 14.0378 5.37056 13.6739C5.37617 13.3099 5.48783 12.9555 5.69186 12.6541C5.91036 12.3297 6.21489 12.0725 6.57132 11.9114C6.92775 11.7503 7.322 11.6917 7.70988 11.7421L8.99959 11.9058C9.22467 11.9367 9.45389 11.9009 9.65877 11.8027C9.86365 11.7045 10.0352 11.5483 10.152 11.3534C10.3534 11.007 10.6524 10.7277 11.0117 10.5503C11.3709 10.373 11.7745 10.3055 12.172 10.3563L12.7359 10.4285C12.9338 10.4533 13.1347 10.4261 13.3188 10.3496C13.5029 10.273 13.6639 10.1499 13.7859 9.99217L14.2828 9.34764C14.5019 9.06491 14.625 8.71958 14.634 8.36201C14.643 8.00445 14.5376 7.65334 14.3331 7.3599L13.2612 5.81496C12.8504 5.22202 12.315 4.72599 11.6924 4.36154C11.5288 4.26609 11.3709 4.16128 11.2194 4.04766L10.3164 3.36961L9.17297 2.50852C11.9225 1.07039 15.0346 0.473654 18.1211 0.792754C21.2076 1.11185 24.1318 2.33266 26.5289 4.30289L25.9005 5.17945C24.9369 6.22934 24.0878 7.37878 23.3675 8.60836L22.7848 9.6048C22.7066 9.74486 22.6737 9.90571 22.6907 10.0652C22.7077 10.2247 22.7736 10.3751 22.8796 10.4955C23.1019 10.7496 23.4101 10.9128 23.7452 10.9538L24.0262 10.9886C24.5628 11.0549 25.0686 11.2755 25.4823 11.6237C25.896 11.9718 26.1998 12.4325 26.3568 12.9499C26.5079 13.4513 26.5123 13.9855 26.3694 14.4893C26.2265 14.9932 25.9424 15.4455 25.5505 15.7929L22.7687 18.2499C22.633 18.3697 22.5244 18.5171 22.4499 18.6821C22.3755 18.8471 22.337 19.026 22.3369 19.207V19.8593C22.3366 20.0154 22.3756 20.1691 22.4502 20.3061C22.5249 20.4432 22.6329 20.5593 22.7642 20.6437C23.1005 20.8592 23.3834 21.1482 23.5917 21.4889C23.8001 21.8297 23.9284 22.2133 23.9669 22.6108L24.032 23.2618C24.0501 23.4487 24.1373 23.6221 24.2766 23.7481C24.4158 23.8741 24.597 23.9436 24.7848 23.943H26.4135C26.8201 23.9429 27.2179 23.8245 27.5583 23.6021C27.8987 23.3797 28.167 23.063 28.3304 22.6907L28.4283 22.4677C28.627 22.0109 28.9502 21.6192 29.361 21.3375C29.7718 21.0557 30.2535 20.8952 30.7512 20.8744L31.1341 20.857C31.1702 20.8557 31.2076 20.8525 31.2443 20.8493Z" fill="#55D8D8"/>
<path d="M17.247 20.9737C17.299 21.0344 17.3372 21.1058 17.3587 21.1829C17.3802 21.26 17.3845 21.3408 17.3714 21.4197C17.3454 21.5638 17.2657 21.6926 17.1483 21.78L15.5332 23.0201C15.1013 23.3517 14.7833 23.8094 14.6231 24.3298L14.0797 26.0906C14.037 26.2305 13.9669 26.3604 13.8735 26.4728L13.345 27.1077C12.9508 27.5744 12.7077 28.1498 12.6476 28.7577C12.6338 28.9096 12.5789 29.0549 12.4887 29.1779C12.3986 29.3009 12.2766 29.3969 12.1358 29.4557C12.0657 29.4853 11.9889 29.4953 11.9136 29.4847C11.8382 29.4742 11.7672 29.4435 11.7079 29.3958C11.6249 29.3269 11.5702 29.2298 11.5545 29.1232L11.0588 26.1493C10.9968 25.779 10.8455 25.4295 10.618 25.1309L8.79458 22.7404C8.63052 22.5251 8.50891 22.2805 8.43622 22.0198L7.83487 19.8484C7.72877 19.4688 7.5262 19.1231 7.24688 18.845C6.96756 18.567 6.62101 18.3659 6.24095 18.2615L6.11011 18.2254C5.84441 18.1529 5.60054 18.0164 5.39983 17.8277L4.27706 16.7707C4.09916 16.6036 3.94633 16.4117 3.82331 16.201C3.56264 15.7512 3.16813 15.394 2.69479 15.1791C2.22144 14.9642 1.69284 14.9023 1.18267 15.0021L0.967393 15.0447L0.776611 15.0266C1.02228 12.4057 1.91905 9.88772 3.3854 7.70153C4.85175 5.51534 6.84119 3.73026 9.17292 2.50853L10.3163 3.36962L11.2193 4.04767C11.3708 4.1613 11.5288 4.2661 11.6924 4.36156C12.3149 4.726 12.8503 5.22204 13.2612 5.81498L14.333 7.35992C14.5376 7.65335 14.643 8.00446 14.634 8.36203C14.6249 8.7196 14.5019 9.06493 14.2828 9.34765L13.7858 9.99218C13.6638 10.1499 13.5028 10.2731 13.3187 10.3496C13.1346 10.4261 12.9337 10.4533 12.7359 10.4285L12.1719 10.3563C11.7745 10.3055 11.3709 10.373 11.0116 10.5503C10.6523 10.7277 10.3533 11.007 10.152 11.3534C10.0351 11.5483 9.86361 11.7045 9.65872 11.8027C9.45384 11.9009 9.22462 11.9368 8.99954 11.9058L7.70983 11.7421C7.32195 11.6917 6.9277 11.7504 6.57127 11.9114C6.21484 12.0725 5.91031 12.3297 5.69181 12.6541C5.48778 12.9555 5.37612 13.3099 5.37052 13.6739C5.36491 14.0378 5.46559 14.3955 5.66022 14.7031L6.52003 16.0604C6.75521 16.4317 7.1222 16.7003 7.54725 16.8121C7.97231 16.9238 8.42392 16.8706 8.81134 16.6631L9.69628 16.1887C9.94466 16.0565 10.2229 15.9907 10.5042 15.9976C10.7855 16.0045 11.0602 16.0839 11.3018 16.228L12.9815 17.2361C13.0488 17.2762 13.1261 17.2966 13.2045 17.2947C13.985 17.2741 14.712 17.6943 15.1664 18.3285L15.9888 19.4739C16.0462 19.5544 16.1074 19.6331 16.1719 19.7085L17.247 20.9737Z" fill="#D8FF33"/>
<path d="M16.5 0.708998C13.9478 0.705163 11.433 1.32279 9.17297 2.50853L10.3164 3.36962L11.2194 4.04767C11.3671 4.1583 11.521 4.26055 11.6803 4.35395L11.7512 4.31321C14.0268 3.12351 16.5579 2.5059 19.1258 2.51376C21.6936 2.52162 24.221 3.15472 26.4893 4.35833L26.529 4.3029C23.7062 1.97405 20.1594 0.703032 16.5 0.708998V0.708998Z" fill="#6BF2EE"/>
<path d="M3.28711 18.3047C3.28711 17.8077 3.30967 17.3166 3.35479 16.8313L3.50342 15.7673C3.21489 15.4512 2.84979 15.2147 2.44331 15.0807C2.03684 14.9466 1.60269 14.9196 1.18272 15.0021L0.967442 15.0446L0.776661 15.0266C0.732188 15.5119 0.70963 16.0031 0.708985 16.5C0.708038 19.3078 1.45605 22.0651 2.87589 24.4875C4.29572 26.9098 6.33599 28.9097 8.78632 30.2807C7.0594 28.7999 5.67366 26.9626 4.72437 24.8953C3.77508 22.828 3.28476 20.5796 3.28711 18.3047V18.3047Z" fill="#6BF2EE"/>
<path d="M3.49209 15.755C3.88612 13.3523 4.82987 11.0732 6.24974 9.09526C7.6696 7.11737 9.5272 5.49421 11.6776 4.3524C11.5193 4.2594 11.3663 4.15767 11.2193 4.04767L10.3163 3.36962L9.17292 2.50853C6.84119 3.73026 4.85175 5.51534 3.3854 7.70153C1.91905 9.88771 1.02228 12.4057 0.776611 15.0266L0.967393 15.0447L1.18267 15.0021C1.59986 14.9201 2.0311 14.9463 2.43534 15.0781C2.83957 15.2099 3.20336 15.4429 3.49209 15.755V15.755Z" fill="#F5FF92"/>
<path d="M16.1778 5.99998e-05C12.9781 5.49537e-05 9.85031 0.94886 7.18989 2.72649C4.52947 4.50412 2.45592 7.03074 1.23147 9.98684C0.00700887 12.9429 -0.313364 16.1957 0.310859 19.3339C0.935083 22.4721 2.47587 25.3547 4.73837 27.6172C7.77229 30.6511 11.8872 32.3555 16.1778 32.3555C20.4684 32.3555 24.5832 30.6511 27.6172 27.6172C30.6511 24.5833 32.3555 20.4684 32.3555 16.1778C32.3555 11.8872 30.6511 7.77231 27.6172 4.7384C26.1184 3.23144 24.3357 2.03672 22.3721 1.22339C20.4085 0.410051 18.3031 -0.00574723 16.1778 5.99998e-05V5.99998e-05ZM5.28519 5.28522C6.32872 4.24002 7.51658 3.34969 8.81258 2.64135L10.665 4.03437C10.8283 4.15695 10.9985 4.27009 11.1747 4.37327C11.7482 4.70995 12.2418 5.16701 12.6215 5.71293L13.6928 7.25787C13.8505 7.48395 13.9317 7.75447 13.9248 8.02998C13.9178 8.30549 13.823 8.57157 13.6542 8.7894L13.1573 9.43393C13.0765 9.53824 12.97 9.61971 12.8481 9.67032C12.7263 9.72093 12.5933 9.73893 12.4624 9.72255L11.8986 9.65043C11.4257 9.58959 10.9454 9.66972 10.5178 9.88079C10.0903 10.0919 9.73459 10.4245 9.49533 10.8369C9.41704 10.9663 9.30232 11.0698 9.16553 11.1343C9.02874 11.1989 8.87595 11.2217 8.72628 11.1998L7.4367 11.036C6.97785 10.9762 6.5114 11.0455 6.08974 11.2361C5.66807 11.4267 5.30789 11.731 5.04961 12.115C4.8032 12.4787 4.66834 12.9064 4.66157 13.3456C4.6548 13.7849 4.77643 14.2165 5.01152 14.5876L5.87133 15.9452C6.16003 16.3975 6.6085 16.7245 7.12742 16.861C7.64634 16.9974 8.19763 16.9335 8.67149 16.6818L9.55663 16.2075C9.74596 16.1068 9.95807 16.0566 10.1725 16.0618C10.3869 16.067 10.5963 16.1274 10.7805 16.2372L12.4605 17.2453C12.5907 17.3235 12.7405 17.3629 12.8923 17.3589C13.5146 17.3416 14.1265 17.6688 14.5302 18.2315L15.3521 19.3772C15.4159 19.4661 15.4842 19.5534 15.5549 19.6367L16.6302 20.9016C16.646 20.9199 16.6575 20.9415 16.6639 20.9648C16.6703 20.988 16.6715 21.0125 16.6673 21.0363C16.6568 21.0828 16.6293 21.1238 16.5903 21.1511L14.9752 22.3913C14.4791 22.7708 14.1141 23.2959 13.9311 23.8931L13.3882 25.6543C13.3603 25.7453 13.3146 25.8298 13.2537 25.9029L12.7251 26.5383C12.2802 27.0647 12.0062 27.7141 11.9397 28.4002C11.9324 28.4821 11.9028 28.5605 11.8542 28.6268C11.8056 28.6932 11.7398 28.745 11.6639 28.7767C11.6576 28.7794 11.6507 28.7803 11.644 28.7791C11.6373 28.778 11.6311 28.7749 11.6262 28.7703C11.6191 28.7605 11.6146 28.7491 11.6133 28.7372L11.1182 25.7636C11.0457 25.3313 10.8691 24.9231 10.6036 24.5744L8.78003 22.1831C8.64557 22.0073 8.54618 21.8072 8.48728 21.5938L7.88542 19.4224C7.76112 18.9785 7.52414 18.5743 7.19748 18.249C6.87083 17.9238 6.46561 17.6885 6.02118 17.5661L5.89008 17.5303C5.68541 17.4743 5.49754 17.3691 5.34287 17.2239L4.22004 16.1672C4.06928 16.0253 3.93973 15.8625 3.83538 15.6838C3.54252 15.1804 3.10446 14.7773 2.5786 14.5272C2.05273 14.2771 1.46358 14.1917 0.888326 14.2821C1.30238 10.8746 2.85112 7.70554 5.28519 5.28522V5.28522ZM27.0703 27.0704C24.916 29.2247 22.1712 30.6919 19.1831 31.2863C16.1949 31.8807 13.0976 31.5756 10.2828 30.4097C7.46798 29.2438 5.06214 27.2693 3.3695 24.7361C1.67686 22.2028 0.773433 19.2245 0.77347 16.1778C0.77347 15.8108 0.786361 15.446 0.812142 15.0834L0.935119 15.0591C1.36651 14.9754 1.81325 15.0281 2.21331 15.2099C2.61337 15.3917 2.94687 15.6936 3.16752 16.0736C3.30925 16.3165 3.48521 16.5377 3.68997 16.7304L4.81262 17.787C5.05956 18.019 5.3595 18.187 5.68628 18.2765L5.81738 18.3122C6.13268 18.399 6.42016 18.5659 6.65189 18.7967C6.88363 19.0274 7.05174 19.3142 7.13989 19.6291L7.74176 21.8006C7.82691 22.109 7.97054 22.3982 8.16483 22.6524L9.98846 25.0436C10.1776 25.2921 10.3034 25.5829 10.3551 25.8909L10.8507 28.8647C10.8794 29.0564 10.9761 29.2314 11.1231 29.3578C11.2701 29.4841 11.4576 29.5534 11.6515 29.553C11.7586 29.553 11.8646 29.5316 11.9634 29.4902C12.1689 29.4043 12.347 29.264 12.4786 29.0843C12.6102 28.9046 12.6903 28.6924 12.7102 28.4706C12.7627 27.9407 12.9754 27.4393 13.32 27.0333L13.8486 26.3979C13.9747 26.2463 14.0695 26.0712 14.1274 25.8827L14.6703 24.1214C14.8063 23.6775 15.0776 23.2872 15.4464 23.0051L17.0614 21.765C17.2579 21.6178 17.3902 21.4008 17.4312 21.1587C17.4528 21.0247 17.4451 20.8875 17.4085 20.7567C17.372 20.6259 17.3076 20.5046 17.2197 20.4011L16.1443 19.1362C16.0871 19.069 16.0321 18.9986 15.9806 18.9268L15.1587 17.7811C14.6054 17.0099 13.7507 16.563 12.8722 16.5862C12.8674 16.5862 12.8626 16.585 12.8584 16.5825L11.1784 15.5744C10.8793 15.3962 10.5393 15.298 10.1912 15.2896C9.84308 15.2811 9.49869 15.3627 9.19131 15.5262L8.30624 16.0004C8.00475 16.1606 7.654 16.2013 7.32385 16.1144C6.9937 16.0276 6.70837 15.8196 6.52469 15.5318L5.66488 14.1742C5.51038 13.9303 5.43046 13.6466 5.43492 13.358C5.43939 13.0693 5.52805 12.7882 5.69002 12.5492C5.86841 12.2839 6.11722 12.0736 6.40852 11.942C6.69981 11.8103 7.02206 11.7624 7.33905 11.8037L8.62882 11.9675C8.92923 12.0087 9.2351 11.9603 9.50815 11.8284C9.7812 11.6966 10.0093 11.4871 10.1639 11.2263C10.3269 10.9454 10.5692 10.7188 10.8604 10.5751C11.1517 10.4313 11.4789 10.3767 11.801 10.4182L12.3648 10.4903C12.6296 10.5234 12.8983 10.4869 13.1447 10.3846C13.3911 10.2822 13.6065 10.1175 13.7699 9.90663L14.2668 9.2621C14.5362 8.91443 14.6875 8.48975 14.6986 8.05003C14.7097 7.61031 14.58 7.17854 14.3285 6.81772L13.2571 5.27233C12.813 4.6341 12.2359 4.09976 11.5654 3.70611C11.4147 3.61781 11.2691 3.52098 11.1295 3.41608L9.5788 2.2498C12.1661 1.02909 15.0417 0.551138 17.8848 0.869264C20.7279 1.18739 23.4267 2.28908 25.6802 4.05145L25.2778 4.61297C24.3016 5.6782 23.4415 6.84412 22.7117 8.09112L22.127 9.09079C22.0084 9.30046 21.9581 9.54185 21.983 9.78143C22.0079 10.021 22.1068 10.2469 22.266 10.4277C22.5509 10.7536 22.946 10.9629 23.3757 11.0157L23.6565 11.0502C24.1189 11.1074 24.5547 11.2974 24.9112 11.5974C25.2677 11.8973 25.5295 12.2942 25.6648 12.74C25.7945 13.1705 25.7982 13.6292 25.6754 14.0618C25.5526 14.4944 25.3085 14.8827 24.9719 15.181L22.2041 17.6382C22.0294 17.7951 21.8902 17.9874 21.7957 18.2024C21.7013 18.4174 21.6537 18.65 21.6563 18.8848V19.537C21.6531 19.7567 21.7055 19.9736 21.8088 20.1676C21.912 20.3616 22.0626 20.5263 22.2466 20.6463C22.5329 20.8309 22.7734 21.0781 22.9502 21.3692C23.127 21.6603 23.2353 21.9878 23.267 22.3269L23.3286 22.9624C23.3558 23.2429 23.4875 23.5029 23.6976 23.6908C23.9077 23.8787 24.1807 23.9807 24.4625 23.9766H26.091C26.5714 23.9797 27.0422 23.8424 27.4457 23.5817C27.8492 23.3209 28.1678 22.948 28.3623 22.5087L28.4601 22.2936C28.6301 21.9033 28.9066 21.5688 29.2579 21.3285C29.6093 21.0882 30.0212 20.9517 30.4465 20.9348L30.8296 20.9194L30.8415 20.9186C30.0916 23.2399 28.7988 25.3489 27.0703 27.0704V27.0704ZM31.0739 20.123L30.8838 20.1423C30.8537 20.1453 30.8236 20.1475 30.7942 20.1487L30.4115 20.1661C29.8417 20.1898 29.29 20.3735 28.8196 20.6961C28.3493 21.0188 27.9793 21.4673 27.752 21.9904L27.6542 22.1979C27.52 22.4996 27.3006 22.7556 27.0228 22.9342C26.7451 23.1128 26.4212 23.2063 26.091 23.2032H24.4625C24.3723 23.2068 24.2842 23.176 24.2159 23.1171C24.1475 23.0581 24.1042 22.9754 24.0947 22.8856L24.0296 22.2424C23.9879 21.7885 23.8434 21.3501 23.6072 20.9603C23.3709 20.5705 23.049 20.2396 22.6659 19.9926C22.5909 19.9433 22.5298 19.8755 22.4884 19.7957C22.447 19.716 22.4268 19.6269 22.4297 19.5372V18.8848C22.4271 18.7596 22.4514 18.6353 22.5008 18.5202C22.5503 18.4051 22.6238 18.302 22.7165 18.2177L25.4912 15.7606C25.9382 15.3639 26.2621 14.8474 26.4247 14.2723C26.5873 13.6973 26.5817 13.0876 26.4087 12.5156C26.2295 11.9265 25.8832 11.4019 25.4119 11.0056C24.9405 10.6092 24.3644 10.3581 23.7532 10.2826L23.4715 10.248C23.2305 10.2185 23.0088 10.1011 22.8489 9.91836C22.7965 9.8589 22.7635 9.78485 22.7543 9.70612C22.7451 9.62739 22.7601 9.54772 22.7974 9.47776L23.3799 8.48164C24.0857 7.27546 24.9184 6.14814 25.8638 5.11886C25.8744 5.10734 25.8843 5.09518 25.8934 5.08245L26.2778 4.54607C26.5488 4.78235 26.813 5.02874 27.0703 5.28522C28.5052 6.71233 29.6428 8.40988 30.4173 10.2796C31.1917 12.1493 31.5876 14.154 31.5821 16.1778C31.5829 17.5092 31.4121 18.8352 31.0739 20.1229L31.0739 20.123Z" fill="#284268"/>
<g filter="url(#filter0_d)">
<path d="M45.3538 23.5714C45.2123 23.5714 45.085 23.5219 44.9719 23.4229C44.8729 23.3098 44.8234 23.1825 44.8234 23.0411V12.0521H41.0473C40.9058 12.0521 40.7785 12.0026 40.6654 11.9036C40.5664 11.7904 40.5169 11.6631 40.5169 11.5217V9.25178C40.5169 9.09621 40.5664 8.96893 40.6654 8.86993C40.7785 8.77093 40.9058 8.72143 41.0473 8.72143H52.4606C52.6161 8.72143 52.7434 8.77093 52.8424 8.86993C52.9414 8.96893 52.9909 9.09621 52.9909 9.25178V11.5217C52.9909 11.6773 52.9414 11.8046 52.8424 11.9036C52.7434 12.0026 52.6161 12.0521 52.4606 12.0521H48.6844V23.0411C48.6844 23.1825 48.6349 23.3098 48.5359 23.4229C48.4369 23.5219 48.3096 23.5714 48.154 23.5714H45.3538Z" fill="white"/>
<path d="M53.0572 23.5714C52.9016 23.5714 52.7743 23.5219 52.6753 23.4229C52.5763 23.3239 52.5268 23.1966 52.5268 23.0411V13.0704C52.5268 12.9148 52.5763 12.7875 52.6753 12.6885C52.7743 12.5895 52.9016 12.54 53.0572 12.54H55.4968C55.6524 12.54 55.7797 12.5966 55.8787 12.7097C55.9918 12.8087 56.0484 12.9289 56.0484 13.0704V13.9189C56.8263 12.9996 57.8728 12.54 59.1881 12.54H60.1216C60.2771 12.54 60.4044 12.5895 60.5034 12.6885C60.6024 12.7875 60.6519 12.9148 60.6519 13.0704V15.2554C60.6519 15.3969 60.6024 15.5241 60.5034 15.6373C60.4044 15.7363 60.2771 15.7858 60.1216 15.7858H58.0638C57.4839 15.7858 57.0313 15.9484 56.7061 16.2737C56.3949 16.5849 56.2393 17.0304 56.2393 17.6102V23.0411C56.2393 23.1966 56.1828 23.3239 56.0696 23.4229C55.9706 23.5219 55.8433 23.5714 55.6878 23.5714H53.0572Z" fill="white"/>
<path d="M61.6087 10.9489C61.4531 10.9489 61.3259 10.8994 61.2269 10.8004C61.1279 10.7014 61.0784 10.5741 61.0784 10.4186V8.50928C61.0784 8.35371 61.1279 8.22643 61.2269 8.12743C61.3259 8.02843 61.4531 7.97893 61.6087 7.97893H64.1544C64.31 7.97893 64.4373 8.02843 64.5363 8.12743C64.6353 8.22643 64.6848 8.35371 64.6848 8.50928V10.4186C64.6848 10.5741 64.6353 10.7014 64.5363 10.8004C64.4373 10.8994 64.31 10.9489 64.1544 10.9489H61.6087ZM61.6299 23.5714C61.4744 23.5714 61.3471 23.5219 61.2481 23.4229C61.1491 23.3239 61.0996 23.1966 61.0996 23.0411V13.0704C61.0996 12.9148 61.1491 12.7875 61.2481 12.6885C61.3471 12.5895 61.4744 12.54 61.6299 12.54H64.1332C64.2888 12.54 64.4161 12.5895 64.5151 12.6885C64.6141 12.7875 64.6636 12.9148 64.6636 13.0704V23.0411C64.6636 23.1825 64.6141 23.3098 64.5151 23.4229C64.4161 23.5219 64.2888 23.5714 64.1332 23.5714H61.6299Z" fill="white"/>
<path d="M66.6393 27.6021C66.4979 27.6021 66.3706 27.5526 66.2575 27.4536C66.1585 27.3546 66.109 27.2274 66.109 27.0718V13.0704C66.109 12.9148 66.1585 12.7875 66.2575 12.6885C66.3706 12.5895 66.4979 12.54 66.6393 12.54H69.0365C69.1921 12.54 69.3194 12.5895 69.4184 12.6885C69.5174 12.7875 69.5669 12.9148 69.5669 13.0704V13.8341C70.3306 12.8299 71.4267 12.3279 72.8551 12.3279C74.2411 12.3279 75.323 12.7592 76.1009 13.6219C76.8787 14.4846 77.303 15.7009 77.3737 17.2708C77.3879 17.4546 77.395 17.7163 77.395 18.0557C77.395 18.3951 77.3879 18.6568 77.3737 18.8406C77.3172 20.3681 76.8929 21.5773 76.1009 22.4683C75.3089 23.3451 74.227 23.7836 72.8551 23.7836C71.4691 23.7836 70.4367 23.3098 69.7578 22.3622V27.0718C69.7578 27.2274 69.7083 27.3546 69.6093 27.4536C69.5103 27.5526 69.383 27.6021 69.2275 27.6021H66.6393ZM71.7095 20.9409C72.3742 20.9409 72.848 20.7429 73.1309 20.3469C73.4279 19.9509 73.5976 19.4064 73.64 18.7134C73.6683 18.4305 73.6825 18.2113 73.6825 18.0557C73.6825 17.9001 73.6683 17.6809 73.64 17.3981C73.5976 16.7051 73.4279 16.1606 73.1309 15.7646C72.848 15.3686 72.3742 15.1706 71.7095 15.1706C71.059 15.1706 70.5781 15.3756 70.267 15.7858C69.97 16.1818 69.8002 16.698 69.7578 17.3344L69.7366 18.1194L69.7578 18.9255C69.7861 19.5054 69.9629 19.9862 70.2882 20.3681C70.6135 20.7499 71.0872 20.9409 71.7095 20.9409Z" fill="white"/>
<path d="M83.7987 23.7836C82.7097 23.7836 81.6985 23.5997 80.765 23.232C79.8458 22.8501 79.1033 22.2915 78.5375 21.5561C77.986 20.8206 77.696 19.9367 77.6678 18.9043C77.6678 18.777 77.7102 18.6709 77.795 18.5861C77.8799 18.4871 77.993 18.4376 78.1345 18.4376H80.9984C81.1823 18.4376 81.3237 18.4871 81.4227 18.5861C81.5358 18.6851 81.6348 18.8336 81.7197 19.0316C81.946 20.163 82.6743 20.7287 83.9048 20.7287C84.6119 20.7287 85.1564 20.4954 85.5383 20.0286C85.9201 19.5619 86.111 18.8901 86.111 18.0133V11.8824H79.2376C79.0962 11.8824 78.9689 11.8329 78.8558 11.7339C78.7568 11.6207 78.7073 11.4934 78.7073 11.352V9.25178C78.7073 9.09621 78.7568 8.96893 78.8558 8.86993C78.9689 8.77093 79.0962 8.72143 79.2376 8.72143H89.5053C89.6609 8.72143 89.7882 8.77093 89.8872 8.86993C90.0003 8.96893 90.0569 9.09621 90.0569 9.25178V18.1194C90.0569 19.3215 89.7953 20.3469 89.272 21.1954C88.7487 22.044 88.0133 22.6875 87.0657 23.1259C86.1181 23.5644 85.0291 23.7836 83.7987 23.7836Z" fill="white"/>
<path d="M95.6139 23.7836C94.3693 23.7836 93.3652 23.3664 92.6015 22.5319C91.8377 21.6834 91.4559 20.5024 91.4559 18.9891V13.0704C91.4559 12.9148 91.5054 12.7875 91.6044 12.6885C91.7034 12.5895 91.8307 12.54 91.9862 12.54H94.638C94.7936 12.54 94.9209 12.5895 95.0199 12.6885C95.133 12.7875 95.1896 12.9148 95.1896 13.0704V18.8619C95.1896 20.2479 95.8048 20.9409 97.0352 20.9409C97.6292 20.9409 98.096 20.757 98.4354 20.3893C98.7748 20.0216 98.9445 19.5124 98.9445 18.8619V13.0704C98.9445 12.9148 98.994 12.7875 99.093 12.6885C99.2062 12.5895 99.3335 12.54 99.4749 12.54H102.127C102.282 12.54 102.41 12.5895 102.509 12.6885C102.608 12.7875 102.657 12.9148 102.657 13.0704V23.0411C102.657 23.1825 102.608 23.3098 102.509 23.4229C102.41 23.5219 102.282 23.5714 102.127 23.5714H99.6658C99.5244 23.5714 99.3971 23.5219 99.284 23.4229C99.185 23.3098 99.1355 23.1825 99.1355 23.0411V22.2349C98.4 23.2674 97.2262 23.7836 95.6139 23.7836Z" fill="white"/>
<path d="M104.622 23.5714C104.466 23.5714 104.339 23.5219 104.24 23.4229C104.141 23.3239 104.092 23.1966 104.092 23.0411V13.0704C104.092 12.9148 104.141 12.7875 104.24 12.6885C104.339 12.5895 104.466 12.54 104.622 12.54H107.062C107.217 12.54 107.345 12.5895 107.444 12.6885C107.557 12.7875 107.613 12.9148 107.613 13.0704V13.8765C107.995 13.4098 108.483 13.035 109.077 12.7521C109.685 12.4693 110.371 12.3279 111.135 12.3279C112.379 12.3279 113.391 12.7521 114.168 13.6007C114.946 14.4351 115.335 15.609 115.335 17.1223V23.0411C115.335 23.1825 115.286 23.3098 115.187 23.4229C115.088 23.5219 114.96 23.5714 114.805 23.5714H112.132C111.99 23.5714 111.863 23.5219 111.75 23.4229C111.651 23.3098 111.602 23.1825 111.602 23.0411V17.2496C111.602 16.5849 111.439 16.0757 111.114 15.7221C110.788 15.3544 110.322 15.1706 109.713 15.1706C109.119 15.1706 108.653 15.3544 108.313 15.7221C107.974 16.0757 107.804 16.5849 107.804 17.2496V23.0411C107.804 23.1825 107.755 23.3098 107.656 23.4229C107.557 23.5219 107.429 23.5714 107.274 23.5714H104.622Z" fill="white"/>
<path d="M117.193 23.5714C117.052 23.5714 116.924 23.5219 116.811 23.4229C116.712 23.3098 116.663 23.1825 116.663 23.0411V9.03964C116.663 8.88407 116.712 8.75678 116.811 8.65778C116.924 8.55878 117.052 8.50928 117.193 8.50928H119.654C119.81 8.50928 119.937 8.55878 120.036 8.65778C120.135 8.75678 120.184 8.88407 120.184 9.03964V16.1464L123.133 12.9006C123.161 12.8724 123.211 12.8229 123.282 12.7521C123.366 12.6814 123.451 12.6319 123.536 12.6036C123.621 12.5612 123.72 12.54 123.833 12.54H126.676C126.803 12.54 126.909 12.5895 126.994 12.6885C127.093 12.7734 127.143 12.8794 127.143 13.0067C127.143 13.1623 127.086 13.2825 126.973 13.3674L123.154 17.4829L127.503 22.7653C127.616 22.8784 127.673 22.9845 127.673 23.0835C127.673 23.2249 127.623 23.3451 127.524 23.4441C127.44 23.529 127.326 23.5714 127.185 23.5714H124.279C124.095 23.5714 123.953 23.5431 123.854 23.4866C123.77 23.43 123.663 23.3381 123.536 23.2108L120.184 19.1801V23.0411C120.184 23.1825 120.135 23.3098 120.036 23.4229C119.937 23.5219 119.81 23.5714 119.654 23.5714H117.193Z" fill="white"/>
<path d="M128.521 10.9489C128.365 10.9489 128.238 10.8994 128.139 10.8004C128.04 10.7014 127.99 10.5741 127.99 10.4186V8.50928C127.99 8.35371 128.04 8.22643 128.139 8.12743C128.238 8.02843 128.365 7.97893 128.521 7.97893H131.066C131.222 7.97893 131.349 8.02843 131.448 8.12743C131.547 8.22643 131.597 8.35371 131.597 8.50928V10.4186C131.597 10.5741 131.547 10.7014 131.448 10.8004C131.349 10.8994 131.222 10.9489 131.066 10.9489H128.521ZM128.542 23.5714C128.386 23.5714 128.259 23.5219 128.16 23.4229C128.061 23.3239 128.012 23.1966 128.012 23.0411V13.0704C128.012 12.9148 128.061 12.7875 128.16 12.6885C128.259 12.5895 128.386 12.54 128.542 12.54H131.045C131.201 12.54 131.328 12.5895 131.427 12.6885C131.526 12.7875 131.576 12.9148 131.576 13.0704V23.0411C131.576 23.1825 131.526 23.3098 131.427 23.4229C131.328 23.5219 131.201 23.5714 131.045 23.5714H128.542Z" fill="white"/>
<path d="M138.112 23.7836C136.415 23.7836 135.079 23.3239 134.103 22.4046C133.127 21.4854 132.618 20.1489 132.575 18.3951V17.6526C132.632 15.9838 133.148 14.6826 134.124 13.7492C135.114 12.8016 136.436 12.3279 138.091 12.3279C139.293 12.3279 140.305 12.5754 141.125 13.0704C141.959 13.5512 142.582 14.2159 142.992 15.0645C143.416 15.9131 143.628 16.8889 143.628 17.9921V18.5012C143.628 18.6426 143.579 18.7699 143.48 18.8831C143.381 18.9821 143.253 19.0316 143.098 19.0316H136.309V19.1801C136.337 19.8448 136.5 20.3822 136.797 20.7924C137.094 21.2025 137.525 21.4076 138.091 21.4076C138.445 21.4076 138.735 21.3369 138.961 21.1954C139.187 21.0399 139.392 20.856 139.576 20.6439C139.703 20.4883 139.802 20.3964 139.873 20.3681C139.958 20.3256 140.085 20.3044 140.255 20.3044H142.886C143.013 20.3044 143.119 20.3469 143.204 20.4317C143.303 20.5024 143.352 20.6014 143.352 20.7287C143.352 21.0964 143.14 21.5207 142.716 22.0016C142.306 22.4824 141.705 22.8996 140.913 23.2532C140.121 23.6068 139.187 23.7836 138.112 23.7836ZM139.894 16.9314V16.8889C139.894 16.1959 139.732 15.6514 139.406 15.2554C139.095 14.8453 138.657 14.6402 138.091 14.6402C137.54 14.6402 137.101 14.8453 136.776 15.2554C136.465 15.6514 136.309 16.1959 136.309 16.8889V16.9314H139.894Z" fill="white"/>
</g>
<defs>
<filter id="filter0_d" x="39.5169" y="7.97893" width="105.111" height="21.6232" filterUnits="userSpaceOnUse" color-interpolation-filters="sRGB">
<feFlood flood-opacity="0" result="BackgroundImageFix"/>
<feColorMatrix in="SourceAlpha" type="matrix" values="0 0 0 0 0 0 0 0 0 0 0 0 0 0 0 0 0 0 127 0"/>
<feOffset dy="1"/>
<feGaussianBlur stdDeviation="0.5"/>
<feColorMatrix type="matrix" values="0 0 0 0 0 0 0 0 0 0 0 0 0 0 0 0 0 0 0.25 0"/>
<feBlend mode="normal" in2="BackgroundImageFix" result="effect1_dropShadow"/>
<feBlend mode="normal" in="SourceGraphic" in2="effect1_dropShadow" result="shape"/>
</filter>
</defs>
</svg>
